<svg xmlns="http://www.w3.org/2000/svg" width="96" height="96" viewBox="0 0 96 96">
  <ellipse cx="48" cy="84" rx="28" ry="7" fill="#111" opacity="0.35"/>
  <path d="M58 12 C68 14 74 22 72 32 L70 44 C68 54 64 60 56 66 L48 72 C44 74 40 74 36 72 L28 66 C24 62 22 56 24 50 L26 40 C28 32 30 26 34 22 C38 16 46 10 58 12 Z" fill="#5a8a4a" stroke="#1a3a1a" stroke-width="5" stroke-linejoin="round"/>
  <path d="M62 18 C56 22 52 28 50 36 C48 28 44 22 38 18" fill="none" stroke="#8aba6a" stroke-width="4" stroke-linecap="round"/>
  <ellipse cx="42" cy="42" rx="4" ry="6" fill="#f0d080" stroke="#1a3a1a" stroke-width="2"/>
  <ellipse cx="54" cy="42" rx="4" ry="6" fill="#f0d080" stroke="#1a3a1a" stroke-width="2"/>
  <circle cx="43" cy="42" r="2" fill="#1a3a1a"/>
  <circle cx="53" cy="42" r="2" fill="#1a3a1a"/>
  <path d="M38 54 L34 60 L30 56 Z" fill="#8aba6a" stroke="#1a3a1a" stroke-width="3" stroke-linejoin="round"/>
  <path d="M56 32 C60 28 66 24 72 22" fill="none" stroke="#8aba6a" stroke-width="4" stroke-linecap="round"/>
  <path d="M28 48 L18 44 M68 50 L78 46" stroke="#5a8a4a" stroke-width="4" stroke-linecap="round"/>
</svg>
