<svg xmlns="http://www.w3.org/2000/svg" width="72" height="72" viewBox="0 0 72 72">
  <ellipse cx="36" cy="62" rx="24" ry="5" fill="#111" opacity="0.32"/>
  <path d="M19 50 C13 38 20 22 34 20 C37 13 47 13 52 22 C62 31 58 53 43 59 C34 63 23 59 19 50 Z" fill="#4b9857" stroke="#17321f" stroke-width="4" stroke-linejoin="round"/>
  <path d="M31 19 C28 10 38 8 44 15 C39 14 36 17 34 22" fill="#9ed86f" stroke="#17321f" stroke-width="3" stroke-linejoin="round"/>
  <circle cx="29" cy="39" r="4" fill="#f6efd1"/>
  <circle cx="45" cy="39" r="4" fill="#f6efd1"/>
  <path d="M30 50 C36 46 42 46 47 50" fill="none" stroke="#17321f" stroke-width="4" stroke-linecap="round"/>
</svg>
