<svg xmlns="http://www.w3.org/2000/svg" width="96" height="96" viewBox="0 0 96 96">
  <ellipse cx="48" cy="84" rx="30" ry="7" fill="#111" opacity="0.35"/>
  <path d="M30 24 C30 14 38 10 48 14 C58 10 66 14 66 24 C70 28 72 36 68 42 C74 48 72 58 64 62 L62 72 C60 76 54 80 48 80 C42 80 36 76 34 72 L32 62 C24 58 22 48 28 42 C24 36 26 28 30 24 Z" fill="#b83a2a" stroke="#24100b" stroke-width="5" stroke-linejoin="round"/>
  <circle cx="38" cy="32" r="5" fill="#24100b"/>
  <circle cx="58" cy="32" r="5" fill="#24100b"/>
  <circle cx="39" cy="31" r="2" fill="#f0c8a0"/>
  <circle cx="57" cy="31" r="2" fill="#f0c8a0"/>
  <path d="M36 44 L42 38 L48 44 L54 38 L60 44" fill="none" stroke="#f0d080" stroke-width="4" stroke-linecap="round" stroke-linejoin="round"/>
  <path d="M34 52 C38 58 58 58 62 52" fill="none" stroke="#f0c8a0" stroke-width="4" stroke-linecap="round"/>
  <path d="M28 64 L22 70 M68 64 L74 70" stroke="#24100b" stroke-width="5" stroke-linecap="round"/>
  <path d="M38 72 L34 80 M58 72 L62 80" stroke="#24100b" stroke-width="4" stroke-linecap="round"/>
</svg>
