<svg xmlns="http://www.w3.org/2000/svg" width="96" height="96" viewBox="0 0 96 96">
  <ellipse cx="48" cy="84" rx="30" ry="7" fill="#111" opacity="0.35"/>
  <path d="M58 18 C68 22 72 34 70 42 C76 46 78 52 74 58 C70 64 62 66 56 64 C48 72 38 72 32 66 C24 68 18 64 18 56 C18 50 22 46 28 44 C26 38 28 26 36 20 C42 16 50 14 58 18 Z" fill="#7a6b4a" stroke="#2a2216" stroke-width="5" stroke-linejoin="round"/>
  <path d="M50 42 L38 52 L50 60" fill="none" stroke="#e8cfa0" stroke-width="6" stroke-linecap="round" stroke-linejoin="round"/>
  <path d="M35 30 C40 26 50 26 55 30" fill="none" stroke="#e8cfa0" stroke-width="4" stroke-linecap="round"/>
  <circle cx="38" cy="36" r="4" fill="#2a2216"/>
  <circle cx="54" cy="36" r="4" fill="#2a2216"/>
  <path d="M30 60 C26 54 26 48 32 44" fill="none" stroke="#5a4e32" stroke-width="3" stroke-linecap="round"/>
  <path d="M60 60 C64 54 64 48 58 44" fill="none" stroke="#5a4e32" stroke-width="3" stroke-linecap="round"/>
  <path d="M22 58 L17 66 M68 58 L73 66" stroke="#2a2216" stroke-width="4" stroke-linecap="round"/>
</svg>
