<svg xmlns="http://www.w3.org/2000/svg" width="96" height="96" viewBox="0 0 96 96">
  <ellipse cx="48" cy="84" rx="28" ry="7" fill="#111" opacity="0.35"/>
  <path d="M26 38 C26 24 34 16 48 14 C62 16 70 24 70 38 L72 52 C72 62 64 72 56 76 L50 80 C48 82 48 82 46 80 L40 76 C32 72 24 62 24 52 Z" fill="#6a4a3a" stroke="#2a1a0a" stroke-width="5" stroke-linejoin="round"/>
  <path d="M32 34 C32 26 40 20 48 20 C56 20 64 26 64 34 L66 46 C66 54 58 62 52 66 L48 68 C44 66 36 58 34 48 Z" fill="#8a6a5a" stroke="#2a1a0a" stroke-width="4" stroke-linejoin="round"/>
  <circle cx="42" cy="38" r="4" fill="#2a1a0a"/>
  <circle cx="54" cy="38" r="4" fill="#2a1a0a"/>
  <circle cx="43" cy="37" r="2" fill="#ffcc66"/>
  <circle cx="53" cy="37" r="2" fill="#ffcc66"/>
  <path d="M38 48 C42 52 54 52 58 48" fill="none" stroke="#2a1a0a" stroke-width="3" stroke-linecap="round"/>
  <path d="M30 54 L22 60 M66 54 L74 60" stroke="#2a1a0a" stroke-width="4" stroke-linecap="round"/>
  <path d="M36 64 L32 72 M60 64 L64 72" stroke="#2a1a0a" stroke-width="3" stroke-linecap="round"/>
  <path d="M28 42 L18 38 M68 42 L78 38" stroke="#6a4a3a" stroke-width="4" stroke-linecap="round"/>
</svg>
