<svg xmlns="http://www.w3.org/2000/svg" width="128" height="128" viewBox="0 0 128 128">
  <ellipse cx="62" cy="112" rx="36" ry="8" fill="#161616" opacity="0.35"/>
  <path d="M59 36 L35 101 H89 L68 36 Z" fill="#22384b" stroke="#12191f" stroke-width="5" stroke-linejoin="round"/>
  <path d="M46 102 L52 73 M78 102 L72 73" stroke="#d7c0a0" stroke-width="8" stroke-linecap="round"/>
  <path d="M42 63 C29 72 27 87 39 92" fill="none" stroke="#d7c0a0" stroke-width="8" stroke-linecap="round"/>
  <path d="M77 61 L101 41" stroke="#cbd4d9" stroke-width="6" stroke-linecap="round"/>
  <path d="M50 25 C49 12 79 12 78 26 C77 39 51 39 50 25 Z" fill="#d7b58d" stroke="#12191f" stroke-width="5"/>
  <path d="M49 25 C53 11 74 9 81 23 C75 20 69 21 63 26 C57 23 53 24 49 25 Z" fill="#e7edf2" stroke="#12191f" stroke-width="4" stroke-linejoin="round"/>
  <path d="M51 46 C58 55 72 55 81 45 L91 96 H35 L46 45 Z" fill="#2f6788" stroke="#12191f" stroke-width="5" stroke-linejoin="round"/>
  <path d="M56 47 L63 62 L71 47" fill="none" stroke="#bee7ff" stroke-width="4" stroke-linecap="round"/>
</svg>
