<svg xmlns="http://www.w3.org/2000/svg" width="96" height="96" viewBox="0 0 96 96">
  <ellipse cx="48" cy="84" rx="30" ry="7" fill="#111" opacity="0.35"/>
  <path d="M25 75 C18 54 24 31 45 25 C49 14 65 13 73 28 C85 43 80 72 59 82 C47 88 31 84 25 75 Z" fill="#416f43" stroke="#142419" stroke-width="5" stroke-linejoin="round"/>
  <path d="M44 26 C38 12 55 9 65 20 C55 19 50 24 47 33" fill="#a3ca64" stroke="#142419" stroke-width="4" stroke-linejoin="round"/>
  <path d="M33 52 H63 M38 65 H58" stroke="#e6d9a8" stroke-width="5" stroke-linecap="round"/>
  <path d="M22 45 L12 35 M75 48 L86 38" stroke="#9fd36d" stroke-width="5" stroke-linecap="round"/>
</svg>
