<svg xmlns="http://www.w3.org/2000/svg" width="96" height="96" viewBox="0 0 96 96">
  <rect x="38" y="10" width="20" height="8" rx="2" fill="#ffd700"/>
  <path d="M32 26 L38 18 L58 18 L64 26 L64 80 Q64 86 58 86 L38 86 Q32 86 32 80Z" fill="#1a1a3e"/>
  <path d="M34 28 L38 20 L58 20 L62 28 L62 78 Q62 84 56 84 L40 84 Q34 84 34 78Z" fill="#4169e1"/>
  <circle cx="42" cy="40" r="1.5" fill="#ffffff"/>
  <circle cx="54" cy="35" r="1" fill="#ffffff"/>
  <circle cx="48" cy="50" r="1.5" fill="#ffd700"/>
  <circle cx="38" cy="60" r="1" fill="#ffffff"/>
  <circle cx="56" cy="55" r="1" fill="#ffd700"/>
  <circle cx="44" cy="70" r="1.5" fill="#ffffff"/>
  <ellipse cx="48" cy="65" rx="10" ry="12" fill="#9370db" opacity="0.3"/>
</svg>