<svg xmlns="http://www.w3.org/2000/svg" width="72" height="72" viewBox="0 0 72 72">
  <!-- Shield shape -->
  <path d="M36 8 L56 20 L56 40 C56 52 36 64 36 64 C36 64 16 52 16 40 L16 20 Z" fill="#000" opacity=".65"/>
  <path d="M36 12 L52 22 L52 38 C52 48 36 58 36 58 C36 58 20 48 20 38 L20 22 Z" fill="#fff"/>
  <!-- Crack/damage lines -->
  <path d="M36 20 L38 30 L34 38 L36 48" stroke="#ff4444" stroke-width="3" fill="none" stroke-linecap="round"/>
  <path d="M30 28 L36 32 L32 40" stroke="#ff4444" stroke-width="2" fill="none" stroke-linecap="round"/>
  <path d="M42 26 L38 34 L40 42" stroke="#ff4444" stroke-width="2" fill="none" stroke-linecap="round"/>
</svg>
