<svg xmlns="http://www.w3.org/2000/svg" width="128" height="128" viewBox="0 0 128 128">
  <ellipse cx="62" cy="112" rx="36" ry="8" fill="#161616" opacity="0.35"/>
  <path d="M59 36 L35 101 H89 L68 36 Z" fill="#4b252d" stroke="#21161a" stroke-width="5" stroke-linejoin="round"/>
  <path d="M46 102 L52 73 M78 102 L72 73" stroke="#d9c1a2" stroke-width="8" stroke-linecap="round"/>
  <path d="M41 63 C27 74 27 89 41 92" fill="none" stroke="#d9c1a2" stroke-width="8" stroke-linecap="round"/>
  <path d="M78 62 L107 35" stroke="#cbd4d9" stroke-width="6" stroke-linecap="round"/>
  <path d="M105 33 L113 25" stroke="#f2e6bd" stroke-width="4" stroke-linecap="round"/>
  <path d="M50 25 C49 12 79 12 78 26 C77 39 51 39 50 25 Z" fill="#d6b08b" stroke="#21161a" stroke-width="5"/>
  <path d="M48 25 C53 9 73 8 81 22 C75 20 68 22 63 26 C57 23 52 24 48 25 Z" fill="#efe1b8" stroke="#21161a" stroke-width="4" stroke-linejoin="round"/>
  <path d="M52 46 C58 55 72 55 80 45 L90 96 H36 L47 45 Z" fill="#b73535" stroke="#21161a" stroke-width="5" stroke-linejoin="round"/>
  <path d="M58 47 L63 61 L69 47" fill="none" stroke="#f1d38a" stroke-width="4" stroke-linecap="round"/>
</svg>
